<svg width="4865" height="1023" viewBox="0 0 4865 1023" fill="none" xmlns="http://www.w3.org/2000/svg">
<g clip-path="url(#clip0_3_179)">
<path d="M835.267 547.577C835.267 532 835.267 356 828.194 315.895C821.121 275.79 558.828 139.945 522.277 133.691C485.726 127.437 244.653 276.982 244.653 276.982C244.653 276.982 218.128 291.133 205.75 305.282C193.372 319.432 193.372 321.201 189.835 337.12C186.299 353.038 188.067 469.775 188.067 469.775M835.267 547.577C835.267 547.577 836.43 678.507 831.125 701.5C825.82 724.493 561.18 881.893 522.277 888.968C483.374 896.042 375.508 830.575 373.739 812.888C371.971 795.201 835.267 547.577 835.267 547.577ZM615.997 528.144C615.997 528.144 264.104 738.625 241.116 736.856C218.128 735.087 195.14 706.787 191.604 690.868C188.067 674.95 188.067 611.275 188.067 611.275M188.067 469.775L573.558 255.758M188.067 469.775V611.275M188.067 611.275L693.803 331.814" stroke="#6D28D9" stroke-width="50"/>
<circle cx="613.625" cy="529.5" r="25" fill="#6D28D9"/>
<circle cx="692.625" cy="332.5" r="25" fill="#6D28D9"/>
<circle cx="573.625" cy="255.5" r="25" fill="#6D28D9"/>
<path d="M1021.14 752V271.52H1250.46C1308.22 271.52 1350.93 282.683 1378.59 305.008C1406.26 327.333 1420.09 359.365 1420.09 401.104C1420.09 427.797 1412.08 451.093 1396.06 470.992C1380.53 490.891 1356.75 503.509 1324.72 508.848V509.576C1360.63 514.429 1387.33 527.291 1404.8 548.16C1422.76 569.029 1431.74 593.781 1431.74 622.416C1431.74 663.669 1417.42 695.701 1388.78 718.512C1360.63 740.837 1318.41 752 1262.11 752H1021.14ZM1141.99 663.912H1240.27C1261.63 663.912 1277.4 659.301 1287.59 650.08C1298.27 640.859 1303.61 627.512 1303.61 610.04C1303.61 593.053 1298.27 580.192 1287.59 571.456C1277.4 562.235 1261.63 557.624 1240.27 557.624H1141.99V663.912ZM1141.99 468.08H1228.62C1249.49 468.08 1265.27 463.712 1275.94 454.976C1286.62 445.755 1291.96 432.651 1291.96 415.664C1291.96 398.192 1286.62 385.088 1275.94 376.352C1265.27 367.616 1249.49 363.248 1228.62 363.248H1141.99V468.08ZM1721.39 264.24C1769.44 264.24 1810.69 274.189 1845.15 294.088C1879.61 313.501 1906.06 341.651 1924.5 378.536C1942.94 415.421 1952.17 459.829 1952.17 511.76C1952.17 563.205 1942.94 607.613 1924.5 644.984C1906.06 681.869 1879.61 710.261 1845.15 730.16C1810.69 749.573 1769.44 759.28 1721.39 759.28C1673.83 759.28 1632.57 749.573 1597.63 730.16C1563.17 710.261 1536.48 681.869 1517.55 644.984C1499.11 607.613 1489.89 563.205 1489.89 511.76C1489.89 459.829 1499.11 415.421 1517.55 378.536C1536.48 341.651 1563.17 313.501 1597.63 294.088C1632.57 274.189 1673.83 264.24 1721.39 264.24ZM1721.39 362.52C1699.06 362.52 1680.14 368.101 1664.61 379.264C1649.56 390.427 1637.91 407.171 1629.66 429.496C1621.9 451.336 1618.01 478.757 1618.01 511.76C1618.01 544.277 1621.9 571.699 1629.66 594.024C1637.91 616.349 1649.56 633.093 1664.61 644.256C1680.14 655.419 1699.06 661 1721.39 661C1743.71 661 1762.4 655.419 1777.45 644.256C1792.49 633.093 1803.9 616.349 1811.66 594.024C1819.91 571.699 1824.04 544.277 1824.04 511.76C1824.04 478.757 1819.91 451.336 1811.66 429.496C1803.9 407.171 1792.49 390.427 1777.45 379.264C1762.4 368.101 1743.71 362.52 1721.39 362.52ZM2248.9 264.24C2296.95 264.24 2338.21 274.189 2372.66 294.088C2407.12 313.501 2433.57 341.651 2452.02 378.536C2470.46 415.421 2479.68 459.829 2479.68 511.76C2479.68 563.205 2470.46 607.613 2452.02 644.984C2433.57 681.869 2407.12 710.261 2372.66 730.16C2338.21 749.573 2296.95 759.28 2248.9 759.28C2201.34 759.28 2160.09 749.573 2125.14 730.16C2090.69 710.261 2063.99 681.869 2045.06 644.984C2026.62 607.613 2017.4 563.205 2017.4 511.76C2017.4 459.829 2026.62 415.421 2045.06 378.536C2063.99 341.651 2090.69 313.501 2125.14 294.088C2160.09 274.189 2201.34 264.24 2248.9 264.24ZM2248.9 362.52C2226.58 362.52 2207.65 368.101 2192.12 379.264C2177.08 390.427 2165.43 407.171 2157.18 429.496C2149.41 451.336 2145.53 478.757 2145.53 511.76C2145.53 544.277 2149.41 571.699 2157.18 594.024C2165.43 616.349 2177.08 633.093 2192.12 644.256C2207.65 655.419 2226.58 661 2248.9 661C2271.23 661 2289.92 655.419 2304.96 644.256C2320.01 633.093 2331.41 616.349 2339.18 594.024C2347.43 571.699 2351.55 544.277 2351.55 511.76C2351.55 478.757 2347.43 451.336 2339.18 429.496C2331.41 407.171 2320.01 390.427 2304.96 379.264C2289.92 368.101 2271.23 362.52 2248.9 362.52ZM2992.64 271.52L2772.05 541.608L2764.77 522.68L2653.39 661.728L2629.36 560.536L2854.32 271.52H2992.64ZM2690.52 271.52V752H2565.3V271.52H2690.52ZM2813.55 430.224L3001.37 752H2859.41L2719.64 500.112L2813.55 430.224ZM3485.98 271.52V752H3360.76V271.52H3485.98ZM3186.04 271.52V752H3060.82V271.52H3186.04ZM3427.74 461.528V558.352H3121.98V461.528H3427.74ZM3717.82 271.52V752H3592.6V271.52H3717.82ZM4255.35 271.52L4089.36 752H3942.31L3775.59 271.52H3907.36L3991.81 561.992L4017.29 656.632L4042.04 563.448L4127.95 271.52H4255.35ZM4312.78 752V271.52H4678.24V368.344H4438V465.896H4629.46V556.896H4438V655.176H4687.7V752H4312.78Z" fill="black"/>
</g>
<defs>
<clipPath id="clip0_3_179">
<rect width="4865" height="1023" fill="white"/>
</clipPath>
</defs>
</svg>
