<svg width="4865" height="1023" viewBox="0 0 4865 1023" fill="none" xmlns="http://www.w3.org/2000/svg">
<path d="M1021.14 752V271.52H1250.46C1308.22 271.52 1350.93 282.683 1378.59 305.008C1406.26 327.333 1420.09 359.365 1420.09 401.104C1420.09 427.797 1412.08 451.093 1396.06 470.992C1380.53 490.891 1356.75 503.509 1324.72 508.848V509.576C1360.63 514.429 1387.33 527.291 1404.8 548.16C1422.76 569.029 1431.74 593.781 1431.74 622.416C1431.74 663.669 1417.42 695.701 1388.78 718.512C1360.63 740.837 1318.41 752 1262.11 752H1021.14ZM1141.99 663.912H1240.27C1261.63 663.912 1277.4 659.301 1287.59 650.08C1298.27 640.859 1303.61 627.512 1303.61 610.04C1303.61 593.053 1298.27 580.192 1287.59 571.456C1277.4 562.235 1261.63 557.624 1240.27 557.624H1141.99V663.912ZM1141.99 468.08H1228.62C1249.49 468.08 1265.27 463.712 1275.94 454.976C1286.62 445.755 1291.96 432.651 1291.96 415.664C1291.96 398.192 1286.62 385.088 1275.94 376.352C1265.27 367.616 1249.49 363.248 1228.62 363.248H1141.99V468.08ZM1672.61 380.72C1710.47 380.72 1743.71 388.243 1772.35 403.288C1800.98 418.333 1823.31 439.931 1839.33 468.08C1855.83 496.229 1864.08 530.203 1864.08 570C1864.08 609.797 1855.83 643.771 1839.33 671.92C1823.31 700.069 1800.98 721.667 1772.35 736.712C1743.71 751.757 1710.47 759.28 1672.61 759.28C1635.24 759.28 1602.24 751.757 1573.61 736.712C1544.97 721.667 1522.65 700.069 1506.63 671.92C1490.61 643.771 1482.61 609.797 1482.61 570C1482.61 530.203 1490.61 496.229 1506.63 468.08C1522.65 439.931 1544.97 418.333 1573.61 403.288C1602.24 388.243 1635.24 380.72 1672.61 380.72ZM1672.61 468.808C1659.02 468.808 1647.13 472.448 1636.94 479.728C1627.23 486.523 1619.71 497.443 1614.37 512.488C1609.52 527.048 1607.09 546.219 1607.09 570C1607.09 593.781 1609.52 613.195 1614.37 628.24C1619.71 642.8 1627.23 653.72 1636.94 661C1647.13 667.795 1659.02 671.192 1672.61 671.192C1686.69 671.192 1698.58 667.795 1708.29 661C1718.48 653.72 1726.24 642.557 1731.58 627.512C1736.92 612.467 1739.59 593.296 1739.59 570C1739.59 546.219 1736.92 527.048 1731.58 512.488C1726.24 497.443 1718.48 486.523 1708.29 479.728C1698.58 472.448 1686.69 468.808 1672.61 468.808ZM2104.86 380.72C2142.72 380.72 2175.96 388.243 2204.6 403.288C2233.23 418.333 2255.56 439.931 2271.58 468.08C2288.08 496.229 2296.33 530.203 2296.33 570C2296.33 609.797 2288.08 643.771 2271.58 671.92C2255.56 700.069 2233.23 721.667 2204.6 736.712C2175.96 751.757 2142.72 759.28 2104.86 759.28C2067.49 759.28 2034.49 751.757 2005.86 736.712C1977.22 721.667 1954.9 700.069 1938.88 671.92C1922.86 643.771 1914.86 609.797 1914.86 570C1914.86 530.203 1922.86 496.229 1938.88 468.08C1954.9 439.931 1977.22 418.333 2005.86 403.288C2034.49 388.243 2067.49 380.72 2104.86 380.72ZM2104.86 468.808C2091.27 468.808 2079.38 472.448 2069.19 479.728C2059.48 486.523 2051.96 497.443 2046.62 512.488C2041.77 527.048 2039.34 546.219 2039.34 570C2039.34 593.781 2041.77 613.195 2046.62 628.24C2051.96 642.8 2059.48 653.72 2069.19 661C2079.38 667.795 2091.27 671.192 2104.86 671.192C2118.94 671.192 2130.83 667.795 2140.54 661C2150.73 653.72 2158.49 642.557 2163.83 627.512C2169.17 612.467 2171.84 593.296 2171.84 570C2171.84 546.219 2169.17 527.048 2163.83 512.488C2158.49 497.443 2150.73 486.523 2140.54 479.728C2130.83 472.448 2118.94 468.808 2104.86 468.808ZM2762.07 388L2589.53 574.368L2566.23 580.92L2463.59 697.4L2462.86 570.728L2624.47 388H2762.07ZM2489.79 233.664V752H2366.03V233.664H2489.79ZM2608.46 497.2L2770.07 752H2633.21L2527.65 570L2608.46 497.2ZM3007.54 264.24C3050.73 264.24 3089.07 271.035 3122.56 284.624C3156.53 298.213 3185.9 318.597 3210.65 345.776L3150.95 426.584C3130.08 404.744 3107.76 388.485 3083.98 377.808C3060.68 366.645 3034.47 361.064 3005.35 361.064C2988.37 361.064 2974.53 363.005 2963.86 366.888C2953.67 370.771 2946.14 376.109 2941.29 382.904C2936.44 389.699 2934.01 397.464 2934.01 406.2C2934.01 418.333 2939.11 427.797 2949.3 434.592C2959.97 440.901 2974.05 445.997 2991.52 449.88L3070.15 468.08C3117.22 478.757 3151.68 495.016 3173.52 516.856C3195.36 538.211 3206.28 566.603 3206.28 602.032C3206.28 636.005 3197.55 664.883 3180.07 688.664C3163.09 711.96 3139.55 729.675 3109.46 741.808C3079.37 753.456 3045.15 759.28 3006.81 759.28C2975.75 759.28 2946.14 755.883 2917.99 749.088C2889.84 741.808 2864.12 731.616 2840.83 718.512C2818.01 705.408 2798.6 690.363 2782.59 673.376L2842.28 589.656C2854.41 603.731 2869.22 616.349 2886.69 627.512C2904.16 638.189 2923.09 646.683 2943.47 652.992C2963.86 659.301 2984.48 662.456 3005.35 662.456C3021.85 662.456 3035.2 660.757 3045.39 657.36C3056.07 653.963 3064.08 648.867 3069.42 642.072C3074.76 635.277 3077.43 627.269 3077.43 618.048C3077.43 607.856 3073.79 599.12 3066.51 591.84C3059.71 584.56 3046.85 578.736 3027.92 574.368L2941.29 554.712C2917.51 549.373 2895.18 541.851 2874.31 532.144C2853.44 521.952 2836.46 507.877 2823.35 489.92C2810.25 471.963 2803.7 448.909 2803.7 420.76C2803.7 390.669 2811.71 363.976 2827.72 340.68C2844.22 316.899 2867.76 298.213 2898.34 284.624C2928.91 271.035 2965.31 264.24 3007.54 264.24ZM3276.03 752V233.664H3399.79V454.248C3410.96 429.981 3426.24 411.781 3445.66 399.648C3465.07 387.029 3487.64 380.72 3513.36 380.72C3538.11 380.72 3559.71 385.573 3578.15 395.28C3596.6 404.987 3610.91 419.547 3621.11 438.96C3631.78 457.888 3637.12 481.427 3637.12 509.576V752H3513.36V543.792C3513.36 518.069 3508.75 500.112 3499.53 489.92C3490.31 479.728 3478.17 474.632 3463.13 474.632C3451.97 474.632 3441.53 477.544 3431.83 483.368C3422.12 489.192 3414.35 498.413 3408.53 511.032C3402.71 523.651 3399.79 540.152 3399.79 560.536V752H3276.03ZM3924.12 521.224C3924.12 504.237 3919.51 490.891 3910.29 481.184C3901.07 470.992 3888.69 465.896 3873.16 465.896C3857.63 465.896 3844.29 470.021 3833.12 478.272C3821.96 486.037 3814.2 500.112 3809.83 520.496L3705 495.744C3711.79 460.8 3729.5 432.893 3758.14 412.024C3787.26 391.155 3828.03 380.72 3880.44 380.72C3915.39 380.72 3945.24 386.059 3969.99 396.736C3995.22 406.928 4014.4 422.459 4027.5 443.328C4040.6 463.712 4047.16 488.949 4047.16 519.04V652.264C4047.16 671.192 4055.41 680.656 4071.91 680.656C4075.79 680.656 4079.43 680.413 4082.83 679.928C4086.71 679.443 4090.11 678.715 4093.02 677.744L4085.74 748.36C4078.94 751.757 4071.18 754.184 4062.44 755.64C4053.71 757.581 4043.76 758.552 4032.6 758.552C4014.15 758.552 3997.65 755.64 3983.09 749.816C3968.53 743.507 3957.13 734.285 3948.88 722.152C3940.62 709.533 3936.5 693.76 3936.5 674.832V670.464L3950.33 665.368C3950.33 686.237 3944.02 703.709 3931.4 717.784C3919.27 731.859 3903.5 742.293 3884.08 749.088C3865.16 755.883 3845.01 759.28 3823.66 759.28C3786.77 759.28 3757.41 750.787 3735.57 733.8C3713.73 716.328 3702.81 691.333 3702.81 658.816C3702.81 633.093 3710.58 611.496 3726.11 594.024C3741.64 576.552 3766.15 564.419 3799.64 557.624L3935.77 529.232L3935.04 594.752L3866.61 609.312C3853.51 612.224 3843.32 616.349 3836.04 621.688C3828.76 627.027 3825.12 635.52 3825.12 647.168C3825.12 657.845 3828.76 665.853 3836.04 671.192C3843.8 676.531 3852.78 679.2 3862.97 679.2C3871.22 679.2 3878.99 677.987 3886.27 675.56C3893.55 673.133 3899.86 669.493 3905.2 664.64C3911.02 659.301 3915.63 652.749 3919.03 644.984C3922.42 637.219 3924.12 627.997 3924.12 617.32V521.224ZM4141.95 752V388H4251.15L4256.25 466.624C4264.99 439.445 4278.33 418.333 4296.29 403.288C4314.25 388.243 4336.82 380.72 4363.99 380.72C4373.22 380.72 4380.98 381.448 4387.29 382.904C4393.6 384.36 4398.7 386.301 4402.58 388.728L4390.2 490.648C4386.32 489.192 4380.74 487.736 4373.46 486.28C4366.18 484.824 4356.96 484.096 4345.79 484.096C4331.72 484.096 4318.37 487.251 4305.75 493.56C4293.62 499.869 4283.91 509.333 4276.63 521.952C4269.35 534.085 4265.71 549.616 4265.71 568.544V752H4141.95ZM4615.29 759.28C4575.49 759.28 4541.03 752 4511.91 737.44C4482.79 722.395 4460.22 700.797 4444.21 672.648C4428.68 644.013 4420.91 609.797 4420.91 570C4420.91 529.717 4428.92 495.501 4444.93 467.352C4460.95 439.203 4483.03 417.848 4511.18 403.288C4539.82 388.243 4572.58 380.72 4609.46 380.72C4647.32 380.72 4679.59 388.243 4706.29 403.288C4732.98 417.848 4753.36 438.232 4767.44 464.44C4781.51 490.163 4788.55 519.768 4788.55 553.256C4788.55 562.477 4788.31 571.456 4787.82 580.192C4787.34 588.443 4786.61 595.48 4785.64 601.304H4500.99V535.056H4731.04L4672.07 557.624C4672.07 538.211 4669.64 521.952 4664.79 508.848C4660.42 495.259 4653.63 485.067 4644.41 478.272C4635.18 470.992 4623.54 467.352 4609.46 467.352C4594.42 467.352 4581.56 470.992 4570.88 478.272C4560.2 485.552 4552.19 496.957 4546.85 512.488C4541.52 528.019 4538.85 547.917 4538.85 572.184C4538.85 595.965 4541.76 615.379 4547.58 630.424C4553.89 644.984 4562.63 655.661 4573.79 662.456C4585.44 668.765 4599.27 671.92 4615.29 671.92C4632.76 671.92 4647.08 668.28 4658.24 661C4669.4 653.72 4677.41 643.528 4682.26 630.424L4781.27 663.184C4774.48 684.053 4762.58 701.768 4745.6 716.328C4729.1 730.403 4709.44 741.08 4686.63 748.36C4664.3 755.64 4640.52 759.28 4615.29 759.28Z" fill="white"/>
<path d="M425.89 409.223L716.142 267.726L757.335 739.384L425.89 409.223ZM235.894 711.34L417.546 417.064L679.125 809.432L235.894 711.34Z" fill="#6D28D9" stroke="white" stroke-width="10"/>
<path d="M416.174 407.023L242.01 422.573L370.006 370.765L372.144 369.9L372.874 367.712L416.174 237.811V407.023Z" fill="#6D28D9" stroke="white" stroke-width="10"/>
</svg>
